<?xml version="1.0" encoding="utf-8"?>
<!-- Generator: Adobe Illustrator 16.0.0, SVG Export Plug-In . SVG Version: 6.00 Build 0)  -->
<!DOCTYPE svg PUBLIC "-//W3C//DTD SVG 1.1//EN" "http://www.w3.org/Graphics/SVG/1.1/DTD/svg11.dtd">
<svg version="1.1" id="Layer_1" xmlns="http://www.w3.org/2000/svg" xmlns:xlink="http://www.w3.org/1999/xlink" x="0px" y="0px"
	 width="1873px" height="320.983px" viewBox="0 0 1873 320.983" enable-background="new 0 0 1873 320.983" xml:space="preserve">
<g id="gulp_1">
	<g id="gulp">
		<g id="Gulp-Logo" transform="translate(0.000000, 1.000000)">
			<path id="Cup" fill="#DB4749" d="M135.241,244.212c-17.451,0-30.934-2.621-37.419-4.184
				c-4.434-1.068-7.995-2.173-10.7-3.311l8.648,14.777l3.383,46.164c0,5.176,16.441,9.371,36.721,9.371
				c20.282,0,36.722-4.195,36.722-9.371l2.679-46.668l8.183-14.314c-2.717,1.15-6.309,2.271-10.798,3.352
				C166.175,241.591,152.691,244.212,135.241,244.212z M183.739,93.99c-12.807,1.788-29.807,2.773-47.864,2.773
				c-18.057,0-35.055-0.985-47.863-2.773c-6.344-0.886-11.364-1.931-14.919-3.105c-0.848-0.28-2.285-0.759-3.668-1.521l7.935,73.032
				c0.369-1.259,0.779-2.515,1.234-3.768c0.932-2.563,2.01-5.072,3.232-7.522c1.224-2.448,2.556-4.763,3.996-6.944
				c1.439-2.18,2.972-4.187,4.596-6.022c1.625-1.833,3.292-3.411,5.003-4.732c1.711-1.321,3.438-2.353,5.182-3.097
				c1.744-0.744,3.47-1.117,5.182-1.117c1.97,0,3.875,0.539,5.717,1.617c1.841,1.077,3.562,2.822,5.166,5.232
				c0.368,0.539,0.602,1.084,0.698,1.635c0.098,0.552,0.146,1.071,0.146,1.559c0,1.154-0.276,2.065-0.829,2.731
				c-0.551,0.668-1.208,1-1.964,1c-0.695,0-1.338-0.366-1.935-1.096c-0.595-0.73-1.261-1.776-1.998-3.137
				c-0.694-1.23-1.457-2.122-2.289-2.673c-0.834-0.552-1.739-0.828-2.713-0.828c-1.517,0-3.136,0.629-4.856,1.885
				c-1.723,1.256-3.428,2.918-5.116,4.982c-1.69,2.066-3.309,4.425-4.857,7.08s-2.918,5.374-4.11,8.157
				c-1.192,2.785-2.138,5.529-2.842,8.234c-0.705,2.706-1.056,5.137-1.056,7.292c0,0.719,0.05,1.457,0.146,2.212
				c0.098,0.758,0.281,1.443,0.553,2.059c0.27,0.615,0.639,1.122,1.104,1.52c0.466,0.398,1.056,0.597,1.77,0.597
				c0.802,0,1.711-0.27,2.73-0.809c1.018-0.537,2.074-1.243,3.167-2.116c1.094-0.872,2.193-1.858,3.298-2.962
				c1.105-1.103,2.133-2.219,3.086-3.348c0.952-1.128,1.797-2.213,2.533-3.251c0.737-1.039,1.289-1.942,1.657-2.714l3.022-9.042
				c0.368-0.974,0.849-1.668,1.445-2.076c0.595-0.412,1.207-0.617,1.836-0.617c0.302,0,0.605,0.051,0.909,0.153
				c0.304,0.103,0.573,0.264,0.812,0.481c0.238,0.219,0.428,0.5,0.568,0.847c0.141,0.346,0.211,0.749,0.211,1.211
				c0,1.231-0.109,2.385-0.326,3.462c-0.216,1.078-0.492,2.129-0.829,3.156c-0.335,1.024-0.709,2.059-1.121,3.097
				c-0.41,1.039-0.812,2.124-1.201,3.253c-0.086,0.127-0.243,0.531-0.472,1.209c-0.227,0.682-0.502,1.535-0.828,2.561
				c-0.325,1.028-0.677,2.174-1.056,3.445c-0.38,1.268-0.769,2.564-1.169,3.886c-0.401,1.32-0.786,2.614-1.154,3.887
				c-0.368,1.269-0.699,2.416-0.991,3.442c-0.292,1.025-0.535,1.885-0.731,2.578c-0.195,0.691-0.313,1.103-0.356,1.231
				c-0.108,0.41-0.282,0.865-0.521,1.365c-0.237,0.499-0.519,0.976-0.844,1.423c-0.324,0.448-0.682,0.821-1.072,1.118
				c-0.39,0.293-0.79,0.442-1.202,0.442c-0.693,0-1.197-0.233-1.509-0.693c-0.315-0.462-0.472-1.308-0.472-2.54v-0.538
				c0-0.181,0.01-0.373,0.032-0.577c0.021-0.41,0.184-1.18,0.488-2.31c0.303-1.127,0.666-2.403,1.088-3.827
				c0.422-1.425,0.877-2.898,1.364-4.426c0.486-1.526,0.925-2.892,1.315-4.098c-1.149,1.283-2.392,2.56-3.736,3.827
				c-1.343,1.271-2.719,2.413-4.126,3.426c-1.408,1.013-2.827,1.841-4.255,2.482c-1.429,0.64-2.805,0.962-4.126,0.962
				c-1.516,0-2.821-0.335-3.916-1c-0.197-0.122-0.383-0.257-0.569-0.393l4.416,46.296c1.149,2.882,22.79,9.959,51.322,9.959
				c28.545,0,50.195-7.086,51.324-9.963l6.343-55.043c-0.525,0.482-1.036,0.953-1.524,1.409c-1.82,1.694-3.537,3.147-5.151,4.366
				c-1.612,1.22-3.188,2.162-4.726,2.828c-1.539,0.667-3.184,1-4.939,1c-1.646,0-2.918-0.356-3.816-1.076
				c-0.898-0.718-1.348-1.705-1.348-2.964v-0.288c0-0.089,0.011-0.198,0.033-0.328c0.086-0.768,0.422-1.654,1.008-2.653
				c0.583-1.001,1.286-2.04,2.11-3.116c0.823-1.079,1.7-2.168,2.632-3.271c0.931-1.103,1.791-2.148,2.583-3.138
				c0.789-0.985,1.444-1.89,1.964-2.711c0.521-0.82,0.781-1.486,0.781-2.001c0-0.308-0.109-0.551-0.325-0.731
				c-0.217-0.178-0.575-0.27-1.072-0.27c-0.867,0-1.761,0.225-2.68,0.675c-0.921,0.447-1.832,1.051-2.73,1.808
				c-0.898,0.756-1.775,1.624-2.631,2.597c-0.855,0.976-1.656,1.989-2.404,3.041c-0.747,1.052-1.429,2.11-2.046,3.175
				c-0.617,1.063-1.143,2.045-1.577,2.942c-0.129,0.282-0.313,0.681-0.552,1.192c-0.239,0.514-0.499,1.092-0.78,1.732
				c-0.282,0.641-0.579,1.303-0.893,1.979c-0.315,0.683-0.602,1.323-0.861,1.926c-0.259,0.602-0.493,1.141-0.697,1.616
				c-0.207,0.473-0.354,0.802-0.439,0.98c-0.109,0.231-0.288,0.666-0.537,1.307c-0.249,0.644-0.536,1.394-0.86,2.252
				c-0.325,0.859-0.666,1.764-1.023,2.715c-0.357,0.948-0.694,1.846-1.008,2.694c-0.313,0.843-0.59,1.587-0.827,2.23
				c-0.238,0.64-0.391,1.076-0.456,1.308c-0.216,0.667-0.471,1.293-0.762,1.885c-0.293,0.591-0.628,1.108-1.007,1.561
				c-0.379,0.446-0.812,0.805-1.3,1.074c-0.487,0.271-1.034,0.404-1.639,0.404c-0.781,0-1.424-0.187-1.934-0.559
				c-0.508-0.37-0.763-1.083-0.763-2.135c0-0.514,0.065-1.038,0.195-1.576c0.13-0.539,0.293-1.072,0.488-1.598
				c0.194-0.526,0.395-1.038,0.6-1.538c0.205-0.502,0.396-0.983,0.568-1.444c1.17-2.564,2.362-5.135,3.574-7.715
				c1.213-2.578,2.376-5.129,3.493-7.657c0.233-0.525,0.445-1.041,0.672-1.566c-0.067,0.066-0.135,0.136-0.201,0.201
				c-1.408,1.36-2.81,2.559-4.207,3.6c-1.398,1.037-2.784,1.864-4.157,2.481c-1.376,0.614-2.714,0.921-4.014,0.921
				c-0.888,0-1.629-0.139-2.224-0.421c-0.596-0.283-1.072-0.669-1.43-1.154c-0.357-0.487-0.613-1.065-0.763-1.731
				c-0.052-0.229-0.083-0.468-0.117-0.704c-0.381,0.296-0.764,0.584-1.15,0.857c-1.342,0.948-2.664,1.712-3.964,2.288
				c-1.298,0.578-2.469,0.865-3.507,0.865c-1.04,0-1.885-0.345-2.535-1.037c-0.65-0.691-0.974-1.873-0.974-3.541
				c0-1.18,0.173-2.553,0.518-4.116c-0.562,1.001-1.266,2.016-2.109,3.039c-0.846,1.027-1.81,1.963-2.891,2.81
				c-1.085,0.846-2.297,1.533-3.639,2.059c-1.344,0.525-2.806,0.787-4.386,0.787c-0.714,0-1.402-0.088-2.063-0.268
				c-0.662-0.18-1.24-0.488-1.738-0.923c-0.499-0.437-0.898-1.021-1.202-1.752c-0.303-0.73-0.454-1.648-0.454-2.75
				c0-0.025,0.043-0.416,0.129-1.176c0.086-0.755,0.363-1.949,0.828-3.578c0.466-1.627,1.186-3.738,2.16-6.33
				c0.976-2.589,2.352-5.732,4.126-9.425c0.454-0.976,0.98-1.676,1.575-2.098c0.597-0.424,1.24-0.635,1.932-0.635
				c0.305,0,0.618,0.045,0.942,0.134c0.327,0.089,0.629,0.231,0.911,0.424c0.281,0.191,0.509,0.437,0.684,0.731
				c0.171,0.294,0.259,0.633,0.259,1.02c0,0.255-0.034,0.5-0.099,0.73c-0.108,0.437-0.341,1.008-0.697,1.712
				c-0.358,0.707-0.775,1.515-1.253,2.425c-0.476,0.91-0.979,1.892-1.509,2.944c-0.532,1.052-1.024,2.141-1.479,3.271
				s-0.845,2.276-1.17,3.444c-0.325,1.167-0.509,2.302-0.552,3.404c0,0.462,0.107,0.885,0.324,1.271
				c0.218,0.383,0.575,0.576,1.072,0.576c1.408,0,2.75-0.463,4.029-1.385c1.276-0.924,2.456-2.072,3.54-3.444
				c1.083-1.371,2.062-2.847,2.939-4.427c0.878-1.577,1.608-3.019,2.193-4.328c0.412-0.871,0.774-1.808,1.088-2.807
				c0.314-1.002,0.656-1.925,1.023-2.771c0.37-0.846,0.791-1.553,1.268-2.115c0.476-0.564,1.072-0.849,1.786-0.849
				c0.781,0,1.397,0.297,1.853,0.886c0.455,0.591,0.681,1.296,0.681,2.116c0,0.461-0.145,1.098-0.437,1.905
				c-0.293,0.809-0.662,1.73-1.105,2.771c-0.445,1.038-0.926,2.147-1.445,3.327c-0.52,1.181-1.003,2.379-1.445,3.599
				c-0.445,1.218-0.812,2.41-1.105,3.576c-0.292,1.17-0.438,2.252-0.438,3.252c0,0.925,0.476,1.386,1.428,1.386
				c0.672,0,1.505-0.231,2.502-0.692c0.997-0.463,2.041-1.111,3.134-1.944c0.273-0.208,0.548-0.425,0.821-0.653
				c0.306-1.259,0.664-2.423,1.08-3.481c0.758-2.001,1.527-3.989,2.307-5.965c0.779-1.975,1.493-3.782,2.145-5.426l9.842-24.818
				c0.389-0.999,0.915-1.705,1.575-2.115c0.662-0.41,1.327-0.616,2-0.616c0.67,0,1.282,0.218,1.834,0.655
				c0.552,0.436,0.829,1.141,0.829,2.116c0,0.461-0.092,0.949-0.276,1.461c-0.185,0.514-0.417,1.064-0.699,1.654
				c-0.54,1.208-1.185,2.682-1.933,4.425c-0.748,1.745-1.549,3.644-2.403,5.695c-0.856,2.053-1.733,4.188-2.631,6.405
				c-0.898,2.222-1.776,4.381-2.632,6.484c-0.854,2.104-1.656,4.098-2.403,5.983s-1.391,3.521-1.932,4.906
				c-0.239,0.59-0.472,1.277-0.698,2.06c-0.229,0.782-0.341,1.48-0.341,2.096c0,0.385,0.064,0.692,0.194,0.924
				s0.378,0.347,0.748,0.347c0.454,0,1.022-0.159,1.705-0.481c0.683-0.319,1.418-0.744,2.208-1.271
				c0.792-0.524,1.615-1.127,2.469-1.809c0.856-0.679,1.707-1.384,2.55-2.113c0.846-0.733,1.652-1.464,2.42-2.194
				c0.769-0.732,1.457-1.406,2.064-2.021c0.142-0.148,0.312-0.253,0.5-0.33c0.366-1.093,0.699-2.164,0.993-3.208
				c0.174-0.463,0.413-1.117,0.716-1.965c0.303-0.847,0.65-1.68,1.039-2.502c0.39-0.818,0.829-1.532,1.315-2.134
				c0.488-0.603,1.014-0.905,1.576-0.905c0.867,0,1.496,0.199,1.885,0.597c0.389,0.399,0.584,0.981,0.584,1.752
				c0,0.153-0.021,0.397-0.065,0.73c-0.044,0.334-0.097,0.687-0.162,1.059c-0.065,0.371-0.136,0.725-0.211,1.059
				c-0.077,0.333-0.146,0.576-0.212,0.73c0.8-0.872,1.667-1.738,2.599-2.597c0.932-0.859,1.895-1.637,2.892-2.329
				c0.996-0.693,2.014-1.255,3.054-1.693c1.039-0.435,2.079-0.653,3.118-0.653c0.715,0,1.424,0.103,2.127,0.307
				c0.704,0.206,1.333,0.508,1.885,0.905c0.552,0.398,1.002,0.898,1.348,1.501c0.345,0.603,0.519,1.302,0.519,2.098
				c0,1.052-0.264,2.174-0.795,3.364c-0.53,1.194-1.196,2.393-1.997,3.598c-0.803,1.207-1.668,2.38-2.599,3.521
				c-0.932,1.143-1.803,2.181-2.614,3.118c-0.813,0.937-1.496,1.729-2.048,2.386c-0.551,0.654-0.84,1.095-0.86,1.327
				c0,0.309,0.097,0.556,0.292,0.751c0.195,0.191,0.52,0.288,0.974,0.288c0.368,0,0.91-0.205,1.624-0.617
				c0.714-0.41,1.716-1.121,3.004-2.134c1.288-1.014,2.925-2.374,4.906-4.08c1.359-1.17,2.95-2.562,4.743-4.148l8.591-79.568
				c-1.384,0.765-2.823,1.244-3.671,1.524C195.103,92.059,190.084,93.104,183.739,93.99z M135.824,75.111
				c-37.143,0-67.254,4.153-67.254,9.276c0,5.124,30.111,9.276,67.254,9.276c37.143,0,67.255-4.152,67.255-9.276
				C203.079,79.264,172.967,75.111,135.824,75.111z M162.678,87.099c0,1.202-3.579,2.177-7.994,2.177
				c-4.413,0-7.992-0.975-7.992-2.177c0-1.203,3.579-2.178,7.992-2.178C159.1,84.92,162.678,85.896,162.678,87.099z"/>
			<path id="Straw" fill="#DB4749" d="M148.311,86.136c-0.039,0.063-0.061,0.127-0.061,0.193
				c0,0.778,2.881,1.409,6.434,1.409c3.554,0,6.435-0.63,6.435-1.409l8.403-34.075l33.42-35.285c0.011-0.01,0.021-0.021,0.032-0.033
				c0.708-0.8-0.727-3.276-3.11-5.4c-2.381-2.124-4.952-2.842-5.751-2.033c-0.007,0.005-0.012,0.012-0.018,0.018l-35.659,37.522
				L148.311,86.136z"/>
		</g>
	</g>
</g>
<g id="seed">
	<path fill="#F7B238" d="M1798.068,174.123c0,106.46-108.134,131.104-108.134,131.104s-108.134-24.645-108.134-131.104
		c0-7.828,0.829-15.048,2.401-21.689c1.551-6.535,3.823-12.5,6.74-17.94c32.744-5.76,65.868-8.633,98.992-8.633
		s66.248,2.873,98.992,8.633c2.917,5.44,5.189,11.406,6.74,17.94C1797.239,159.075,1798.068,166.295,1798.068,174.123z"/>
	<path fill="#E19C2B" d="M1788.927,134.493c-32.744-5.76-59.029-32.136-92.153-32.136c-27.453,0-40.396,7.443-67.631,11.398
		c-0.346,0.051-8.014-9.169-8.359-9.119c-2.167,0.319-4.752,8.723-6.917,9.068c-0.596,0.094-6.165,0.715-6.761,0.812
		c-2.512,0.407-13.656,19.537-16.164,19.977c-2.917,5.441-5.189,11.407-6.74,17.942c-1.572,6.64-2.4,13.859-2.4,21.688
		c0,106.46,108.134,131.104,108.134,131.104S1620,278.92,1620,165.274c0-6.572,0.336-12.737,0.974-18.521
		c22.901-2.783,45.931-4.174,68.961-4.174c33.124,0,66.248,2.873,98.992,8.633c2.249,0.395,4.491,0.805,6.74,1.224
		C1794.116,145.899,1791.844,139.934,1788.927,134.493z"/>
	<path fill="#985E25" d="M1690.152,82.717c-0.09,0-0.18-0.002-0.27-0.006c-3.143-0.146-5.571-2.81-5.429-5.952l0,0
		c0.006-0.138,0.561-13.911-3.711-28.119c-5.366-17.853-15.621-28.121-30.479-30.52c-3.107-0.501-5.22-3.427-4.719-6.534
		c0.501-3.107,3.43-5.219,6.535-4.719c19.35,3.124,33.067,16.536,39.668,38.79c4.754,16.029,4.121,30.996,4.092,31.626
		C1695.698,80.337,1693.178,82.717,1690.152,82.717z"/>
	<path fill="#B1742A" d="M1807.072,126.453c0,3.716-0.38,7.493-1.162,11.292c-5.646-1.17-11.315-2.257-16.984-3.252
		c-32.744-5.76-65.868-8.633-98.992-8.633c-33.123,0-66.248,2.873-98.992,8.633c-5.676,0.995-11.336,2.082-16.99,3.252
		c-6.627-32.007,15.806-62.714,48.307-66.225c44.986-4.864,90.359-4.864,135.345,0
		C1786.251,74.613,1807.072,98.839,1807.072,126.453z"/>
	<path fill="#985E25" d="M1670.386,71.521c14.505-1.569,29.05-2.623,43.608-3.18c-30.596-1.17-61.255-0.116-91.735,3.18
		c-32.502,3.51-54.933,34.218-48.307,66.225c5.653-1.17,11.313-2.257,16.99-3.252c10.005-1.76,20.045-3.248,30.108-4.469
		C1619.165,100.954,1640.512,74.747,1670.386,71.521z"/>
</g>
<path id="plus" fill="#D81F2A" d="M443.837,151.152h-32.634v-32.634c0-8.017-6.734-14.581-14.754-14.581
	s-14.754,6.564-14.754,14.581v32.634h-32.634c-8.018,0-14.581,6.733-14.581,14.754c0,8.021,6.562,14.755,14.581,14.755h32.634
	v32.633c0,8.017,6.734,14.581,14.754,14.581s14.754-6.564,14.754-14.581v-32.633h32.634c8.017,0,14.581-6.734,14.581-14.755
	C458.418,157.885,451.854,151.152,443.837,151.152z"/>
<g id="dash">
	<path fill="#96CB5D" d="M1444.311,153.035c-1.467-1.467-3.25-2.201-5.345-2.201h-95.584c-2.095,0-3.877,0.734-5.345,2.201
		c-1.467,1.467-2.2,3.248-2.2,5.345v15.093c0,2.098,0.733,3.879,2.2,5.344c1.468,1.469,3.25,2.201,5.345,2.201h95.583
		c2.096,0,3.879-0.732,5.346-2.201c1.467-1.465,2.2-3.246,2.2-5.344V158.38C1446.512,156.283,1445.779,154.502,1444.311,153.035z"/>
</g>
<g id="layer1" transform="translate(0,-850.3622)">
	<g id="jquery-logo" transform="translate(609.88006,-675.5293)">
		<g id="4224" transform="translate(-10.101525,233.99825)">
				<path id="path4228" fill="#75B043" d="
				M6.194,1502.391c-15.827-2.074-33.984-12.945-44.194-26.459c-9.757-12.916-14.265-25.58-14.292-40.146
				c-0.023-12.938,3.772-22.529,13.397-33.854l2.549-3l-2.128,6c-1.623,4.576-2.131,8.372-2.141,16
				c-0.018,12.763,3.145,23.099,10.374,33.907c12.982,19.408,33.423,31.213,55.934,32.297c17.218,0.83,29.931-3.24,40.687-13.025
				l5.692-5.18l-2.339,4.189C57.249,1495.477,34.259,1506.069,6.194,1502.391L6.194,1502.391z M22.676,1462.456
				c-6.188-1.578-12.314-4.648-18.715-9.385c-7.129-5.273-11.189-10.371-15.643-19.639c-2.915-6.065-3.124-7.235-3.124-17.5
				c0-10.561,0.131-11.239,3.295-17c1.812-3.3,4.397-7.35,5.744-9l2.449-3l-2.095,5.5c-1.707,4.48-2.021,7.104-1.69,14.161
				c0.354,7.574,0.884,9.629,4.228,16.395c11.873,24.023,41.062,35.888,63.015,25.617c3.497-1.637,8.179-4.797,10.405-7.023
				c4.594-4.594,4.394-3.05-0.592,4.574c-3.951,6.039-11.076,11.621-18.539,14.519C45.551,1462.952,28.719,1463.997,22.676,1462.456
				L22.676,1462.456z M34.694,1425.862c-6.821-3.16-12.367-8.4-15.805-14.931c-3.527-6.7-3.717-16.951-0.43-23.182
				c2.839-5.382,4.411-6.421,3.17-2.094c-2.402,8.377,0.851,17.787,8.952,25.888c6.715,6.715,14.123,9.887,23.084,9.887
				c6.983,0,10.494-1.17,14.432-4.812c3.149-2.913,2.732-1.621-1.185,3.671C60.966,1428.323,45.701,1430.964,34.694,1425.862
				L34.694,1425.862z"/>
		</g>
		<path id="path4183" fill="#75B043" d="M376.257,1780.179c0.012-0.688,0.912-5.277,2-10.199
			s1.979-9.535,1.979-10.25v-1.301h-1.406h-1.406l0.522-2l0.523-2h1.37h1.37l1.429-3.42l1.429-3.418l2.143-1.148l2.144-1.146
			l2.941,0.646l2.941,0.646l-0.016,1.17c-0.008,0.645-0.346,1.688-0.75,2.32l-0.734,1.148l-2.422,0.352l-2.422,0.35l-0.411,1.25
			l-0.412,1.25h2.69h2.69l-0.606,1.582c-0.334,0.871-0.607,1.77-0.607,2s-1.095,0.418-2.433,0.418h-2.433l-0.542,1.75
			c-0.298,0.963-1.2,4.91-2.006,8.773c-0.805,3.863-1.931,8.25-2.501,9.75l-1.036,2.727h-2.025h-2.024L376.257,1780.179
			L376.257,1780.179z"/>
		<path id="path4181" fill="#75B043" d="M252.335,1764.729c1.045-4.783,1.9-8.996,1.9-9.359v-0.66
			l5.709-0.59l5.709-0.59l1.041,0.826l1.041,0.826l2-0.807c1.1-0.443,3.002-0.838,4.227-0.877l2.228-0.07l1.604,2.449l1.604,2.449
			l-1.15,5.801c-0.633,3.191-1.374,6.59-1.649,7.551l-0.498,1.75h-2.262h-2.262l0.892-6.652l0.892-6.652l-1.312-0.83
			c-0.723-0.457-1.763-0.689-2.312-0.516l-1,0.316l-0.301,1.918c-0.166,1.055-0.761,4.279-1.321,7.168l-1.02,5.25h-2.448h-2.448
			l0.464-2.25c0.256-1.238,0.734-4.332,1.062-6.877l0.598-4.627l-1.713-0.658l-1.713-0.656l-0.751,1.215
			c-0.413,0.668-1.288,4.059-1.943,7.533l-1.192,6.318h-2.787h-2.789L252.335,1764.729L252.335,1764.729z"/>
		<path id="path4179" fill="#75B043" d="M282.435,1772.229l-1.2-1.199l0.004-4.551l0.004-4.551
			l1.949-3.195l1.947-3.195l3.958-1.186l3.957-1.186l2.521,0.633c1.387,0.348,3.228,1.34,4.091,2.203l1.569,1.568v2.961v2.961
			l-1.394,3.338l-1.395,3.336l-2.328,1.631l-2.328,1.631h-5.077h-5.078L282.435,1772.229L282.435,1772.229z"/>
		<path id="path4177" fill="#FFFFFF" d="M293.064,1767.679l2.051-1.75l0.175-2
			c0.097-1.1,0.124-2.531,0.061-3.182l-0.115-1.184l-1.962-0.623l-1.962-0.621l-1.957,1.047l-1.957,1.047l-0.699,3.186l-0.699,3.184
			l1.809,1.324C290.145,1769.815,290.604,1769.778,293.064,1767.679L293.064,1767.679z"/>
		<path id="path4175" fill="#75B043" d="M303.27,1770.724c0.02-1.537,1.033-7.52,2.25-13.295
			l2.215-10.5l2.394-0.338l2.394-0.338l-0.544,4.055l-0.544,4.057l4.297-0.59l4.298-0.588l1.636,2.494l1.635,2.496l-0.669,4.182
			l-0.669,4.18l-2.148,3.195l-2.148,3.195l-7.215,0.295l-7.215,0.293L303.27,1770.724L303.27,1770.724z"/>
		<path id="path4173" fill="#FFFFFF" d="M316.261,1765.864c0.535-1.41,0.975-3.428,0.975-4.48
			v-1.916l-2.573-0.646l-2.573-0.646l-0.875,0.877c-0.482,0.482-1.182,2.791-1.555,5.127l-0.68,4.25h3.152h3.153L316.261,1765.864z"
			/>
		<path id="path4171" fill="#75B043" d="M326.528,1766.216l0.931-7.211l-1.111-0.371l-1.112-0.371
			v-1.916v-1.918h4.567h4.567l-0.498,1.75c-0.274,0.963-1.011,4.451-1.637,7.75c-0.626,3.301-1.362,6.787-1.636,7.75l-0.499,1.75
			h-2.251h-2.252L326.528,1766.216z"/>
		<path id="path4196" fill="#75B043" d="M337.07,1750.716
			l1.062,0.656l1.188,0.75l-1.469,6.906c-0.811,3.801-1.687,8.594-1.969,10.656l-0.531,3.75h2.344h2.344l1.688-7.75
			c0.925-4.264,2.262-10.338,2.969-13.5l1.281-5.75h-4.375h-4.375l-0.031,1.25C337.162,1748.772,337.001,1749.6,337.07,1750.716
			L337.07,1750.716z"/>
		<path id="path4194" fill="#75B043" d="M336.128,1749.309
			l0.036-2.125l-1.031-1.75h-1.812h-1.844l-1.219,1.469l-1.25,1.5l0.625,1.656l0.625,1.625l3.344-0.531l1.812-0.322
			L336.128,1749.309z"/>
		<path id="path4167" fill="#75B043" d="M346.985,1772.349l-1.75-1.02v-3.982v-3.982l1.421-3.4
			l1.422-3.402l3.029-1.566l3.028-1.566h2.827h2.827l2.223,1.557l2.223,1.557v4.443v4.443h-6.5h-6.5v1.5v1.5h5.5h5.5v1.301
			c0,0.715-0.54,1.84-1.2,2.5l-1.2,1.199l-5.55-0.029l-5.55-0.029l-1.75-1.02V1772.349z"/>
		<path id="path4165" fill="#FFFFFF" d="M358.558,1759.827l-0.537-1.398h-1.312
			c-0.721,0-2.022,0.273-2.893,0.607l-1.582,0.607v1.191v1.193l3.43-0.4l3.43-0.4L358.558,1759.827z"/>
		<path id="path4163" fill="#75B043" d="M392.552,1764.104l1.968-9.424l5.566-0.576l5.566-0.574
			l1.292,1.072l1.291,1.072v3.377v3.377h-2.969h-2.969l0.526-1.371l0.526-1.371l-1.701-0.652c-2.25-0.863-2.213-0.924-4.194,7.008
			l-1.72,6.887l-2.576,0.301l-2.576,0.299L392.552,1764.104z"/>
		<path id="path4161" fill="#75B043" d="M410.439,1772.233l-1.204-1.205v-3.832v-3.832
			l1.417-3.389l1.416-3.391l2.613-1.713l2.612-1.711l5.67,0.666c3.118,0.365,5.85,0.846,6.069,1.066
			c0.22,0.219-0.457,4.367-1.505,9.217l-1.904,8.818l-6.99,0.254l-6.99,0.254L410.439,1772.233z"/>
		<path id="path4159" fill="#FFFFFF" d="M422.069,1764.184l1.077-4.244l-0.882-0.883l-0.883-0.881
			l-2.495,0.625l-2.496,0.627l-1.148,3.48l-1.149,3.48l0.631,1.02l0.63,1.02h2.819h2.819L422.069,1764.184z"/>
		<path id="path4157" fill="#75B043" d="M431.561,1764.054l1.958-9.373l5.604-0.58l5.605-0.578
			l0.801,0.803l0.802,0.801l3.907-1.043l3.908-1.043l2.146,1.941l2.146,1.943l-0.603,4.398c-0.332,2.42-1.07,6.135-1.641,8.254
			l-1.038,3.852h-2.091h-2.091l0.678-6.873l0.678-6.875l-1.719-0.66l-1.718-0.658l-0.719,1.162
			c-0.395,0.639-1.009,3.359-1.365,6.045s-0.905,5.555-1.219,6.373l-0.571,1.486h-2.214h-2.214l0.748-5.25
			c0.411-2.887,0.78-5.988,0.82-6.893l0.073-1.643l-1.67-0.641l-1.67-0.641l-0.65,1.051c-0.357,0.578-1.229,3.969-1.938,7.535
			l-1.288,6.48h-2.707h-2.707L431.561,1764.054z"/>
		<path id="path4155" fill="#75B043" d="M461.435,1772.229l-1.2-1.199l0.002-4.051l0.002-4.051
			l1.749-3.486l1.748-3.484l2.5-1.25l2.5-1.25l3.027-0.014l3.027-0.016l2.275,1.594l2.275,1.594l-0.303,4.156l-0.304,4.156
			l-6.267,0.5l-6.268,0.5l0.005,1l0.006,1l5.511,0.301c5.95,0.322,6.022,0.377,4.477,3.266l-1.034,1.934H468.9h-6.265
			L461.435,1772.229L461.435,1772.229z"/>
		<path id="path4153" fill="#FFFFFF" d="M473.235,1759.749v-1.453l-2.741,0.316l-2.741,0.316
			l-0.3,1.584l-0.3,1.582l3.041-0.445l3.041-0.447V1759.749z"/>
		<path id="path4151" fill="#75B043" d="M482.447,1764.239l0.288-9.311l2.843-0.324l2.843-0.326
			l-0.343,5.982l-0.343,5.982l0.57-0.354c0.312-0.195,1.419-2.854,2.457-5.908l1.887-5.553h3.793h3.793l0.056,6.75l0.056,6.75
			l2.558-6.75l2.558-6.75h2.387h2.387v1.057c0,0.58-1.65,4.855-3.668,9.5l-3.667,8.443h-3.833h-3.832l-0.07-6.25l-0.07-6.25
			l-2.313,6l-2.313,6l-4.154,0.311l-4.154,0.309L482.447,1764.239L482.447,1764.239z"/>
		<path id="path4149" fill="#75B043" d="M511.806,1771.858l-1.571-1.572v-3.395v-3.395l1.669-3.5
			l1.669-3.5l3.463-1.645l3.463-1.643l3.615,0.588l3.614,0.586l1.254,1.713l1.253,1.715v3.375v3.375l-1.125,2.184
			c-0.618,1.201-2.047,3.197-3.174,4.434l-2.05,2.25h-5.254h-5.255L511.806,1771.858z"/>
		<path id="path4147" fill="#FFFFFF" d="M521.898,1767.952l2.108-1.477l0.657-2.619l0.657-2.619
			l-1.165-1.404l-1.166-1.404h-1.723h-1.722l-1.577,1.75c-0.868,0.963-1.875,2.945-2.239,4.404l-0.662,2.652l1.834,1.066
			C519.296,1769.694,519.425,1769.684,521.898,1767.952z"/>
		<path id="path4145" fill="#75B043" d="M531.598,1771.679c0.274-0.963,1.236-5.178,2.139-9.367
			l1.64-7.617l5.638-0.582l5.638-0.582l1.292,1.072l1.291,1.072v1.795c0,0.988-0.273,2.508-0.607,3.377l-0.606,1.582h-2.276h-2.276
			l-0.551-2.105l-0.551-2.105l-1.315,0.439l-1.316,0.438l-0.312,1.918c-0.173,1.055-0.973,4.279-1.778,7.166l-1.465,5.25h-2.54
			H531.1L531.598,1771.679z"/>
		<path id="path4143" fill="#75B043" d="M549.235,1772.259c0-0.721,1.192-6.828,2.65-13.57
			l2.649-12.26h2.462h2.461l-0.584,3.25c-0.322,1.787-0.886,5.203-1.254,7.588l-0.669,4.34l2.393-0.34l2.392-0.338l1.832-3.75
			l1.833-3.75h1.917h1.918v2.551v2.549l-1.479,2.859c-0.813,1.574-2.051,3.07-2.75,3.326l-1.271,0.465l1.25,1.326l1.25,1.324v2.801
			v2.799l-2.25-0.01l-2.25-0.01l-1.716-4.084l-1.717-4.084l-1.215,0.404l-1.215,0.404l-1.153,3.439l-1.152,3.439l-2.166,0.32
			l-2.166,0.32V1772.259L549.235,1772.259z"/>
		<path id="path4060" fill="#75B043" d="M569.416,1771.179l0.319-2.25l2.365-0.334l2.365-0.334
			l0.918,0.916l0.917,0.918l-0.64,1.668l-0.64,1.666h-2.963h-2.962L569.416,1771.179z"/>
		<path id="path4058" fill="#131B28" d="M78.112,1760.974l-0.623-0.625l2.521-10.209
			c1.387-5.615,2.96-10.773,3.496-11.461l0.975-1.25h5.423h5.423l2.366-2.365c1.301-1.301,3.254-4.113,4.339-6.25l1.973-3.885
			l6.646-30.541c3.656-16.796,7.002-31.873,7.437-33.5l0.79-2.959l13.18-0.278l13.179-0.278v1.709c0,0.941-3.395,17.357-7.543,36.48
			l-7.542,34.77l-2.482,7.299l-2.482,7.299l-3.446,5.191l-3.446,5.191l-4.779,2.809l-4.779,2.809l-15,0.336l-15,0.334
			L78.112,1760.974L78.112,1760.974z M403.735,1723.804c-14.964-2.947-17.049-3.762-22.335-8.736
			c-4.247-3.996-5.647-6.734-7.136-13.955l-1.199-5.818l1.128-8.682l1.128-8.682l2.468-9.38l2.468-9.379l2.988-6.262l2.988-6.261
			l4.617-5.136l4.616-5.135l4.214-2.469c2.318-1.359,6.879-3.451,10.135-4.651l5.92-2.181l14.5-0.073l14.5-0.074l5.41,1.884
			l5.409,1.883l4.29,4.291l4.29,4.289l1.685,5.793l1.684,5.794l-0.6,9.033l-0.601,9.033l-1.808,7.5l-1.808,7.5l-29.892,0.264
			l-29.892,0.266l-1.335,1.107l-1.334,1.107v2.33c0,1.283,0.538,3.51,1.194,4.953l1.195,2.621l3.055,1.676l3.056,1.674l24.25,0.328
			l24.25,0.328l-0.039,2.172c-0.021,1.195-0.874,6.166-1.895,11.049l-1.854,8.875l-1.355,0.859l-1.356,0.859l-22.5-0.102
			C415.86,1724.243,404.835,1724.02,403.735,1723.804L403.735,1723.804z M440.235,1660.365v-4.066l-1.029-1.924l-1.03-1.924
			l-2.92-1.51l-2.921-1.512h-6.484h-6.485l-2.814,1.064c-4.809,1.816-11.315,9.227-11.315,12.887v1.049h17.5h17.5V1660.365z
			 M188.235,1722.739c-1.375-0.23-4.75-1.113-7.5-1.961l-5-1.541l-5.151-3.457l-5.151-3.459l-2.646-3.818
			c-1.455-2.1-3.58-6.238-4.723-9.195l-2.075-5.379l-0.492-9l-0.491-9l1.68-9l1.681-9l2.995-9l2.994-9l3.605-6.5l3.605-6.5
			l7.706-7.742l7.706-7.742l6.379-2.974c3.508-1.636,9.286-3.715,12.84-4.62l6.46-1.646l12.54,0.457l12.539,0.457l5.739,2.223
			l5.739,2.223l4.761,3.266l4.761,3.266l3.707,4.875l3.706,4.876l2.294,6.042l2.293,6.039l-0.054,10.5l-0.054,10.5l-2.746,9
			c-1.512,4.951-4.524,13.873-6.697,19.828c-2.172,5.955-3.949,11.469-3.949,12.25v1.422h5.834c3.208,0,6.076,0.244,6.374,0.541
			l0.542,0.543l-2.799,10.43c-1.539,5.736-3.084,10.893-3.434,11.459l-0.636,1.027l-36.19-0.135
			C207.021,1723.218,189.61,1722.968,188.235,1722.739z M232.143,1691.679c1.097-3.711,3.844-13.274,6.104-21.25l4.111-14.5
			l-0.312-8.579l-0.312-8.58l-2.884-3.778l-2.884-3.779l-4.116-1.869l-4.116-1.87l-8-0.012l-8-0.012l-5,2.333l-5,2.334l-3.861,4.283
			l-3.862,4.283l-2.954,6.312l-2.953,6.311l-1.922,9.312l-1.921,9.312l0.011,4.5c0.006,2.476,0.42,6.265,0.92,8.422l0.91,3.922
			l1.875,2.578l1.875,2.576l4.403,2.25l4.403,2.25h15.746h15.746l1.992-6.748V1691.679z M302.235,1722.739
			c-1.375-0.23-4.555-1.078-7.065-1.885l-4.565-1.463l-3.643-3.732l-3.641-3.73l-1.627-4.5l-1.626-4.5l-0.036-8.672l-0.035-8.672
			l5.787-27.828l5.786-27.828l0.955-1.25l0.955-1.25h11.318h11.318l0.544,0.879l0.543,0.88l-5.484,27.318l-5.484,27.32v5.189v5.191
			l1.75,2.16l1.75,2.16l4,0.926l4,0.928l7.628,0.023l7.627,0.023l1.034-1.25l1.034-1.25l7.099-32.999
			c3.905-18.149,7.535-34.013,8.067-35.25l0.968-2.25h11.521h11.521v2.327c0,1.279-4.314,22.54-9.588,47.245l-9.588,44.917
			l-1.162,0.74l-1.162,0.74l-24-0.121C315.535,1723.212,303.61,1722.968,302.235,1722.739L302.235,1722.739z M469.643,1722.052
			l-0.528-1.379l9.667-45.371l9.667-45.373l1.085-1.333l1.086-1.334l31.058,0.361l31.058,0.361l3.582,1.601l3.582,1.602l2.153,2.737
			l2.152,2.737l1.024,3.635c0.562,1.998,1.302,5.32,1.643,7.383l0.619,3.75h-28.506H510.48l-1.02,1.25l-1.02,1.25l-6.603,31.714
			c-3.632,17.443-6.604,32.373-6.604,33.18c0,0.805-0.707,2.17-1.571,3.035l-1.571,1.57h-10.96h-10.96L469.643,1722.052
			L469.643,1722.052z M547.696,1722.366l-0.658-1.064l2.668-10.752l2.667-10.752l-5.933-20.654l-5.934-20.652l0.531-0.531
			c0.292-0.291,6.515-0.531,13.829-0.531h13.298l0.923,1.75c0.508,0.963,1.461,4.363,2.118,7.557l1.194,5.806l0.871-0.306
			c0.479-0.168,9.455-12.906,19.946-28.307c10.492-15.399,19.824-28.562,20.738-29.25l1.662-1.25h14.915h14.916l-0.521,1.358
			c-0.287,0.747-14.852,20.434-32.367,43.75l-31.845,42.39l-2.386,9.5c-1.312,5.225-2.787,10.287-3.276,11.25l-0.89,1.75h-12.906
			h-12.905L547.696,1722.366z M121.656,1646.21c0.361-2.354,1.427-7.431,2.368-11.281l1.711-7l13.25-0.279l13.25-0.279l-0.027,1.279
			c-0.015,0.704-1.037,5.778-2.271,11.278l-2.246,10l-13.345,0.281l-13.346,0.279L121.656,1646.21z"/>
	</g>
</g>
</svg>
