<?xml version="1.0" encoding="UTF-8" standalone="no"?>
<!-- Created with Inkscape (http://www.inkscape.org/) -->

<svg
   xmlns:dc="http://purl.org/dc/elements/1.1/"
   xmlns:cc="http://creativecommons.org/ns#"
   xmlns:rdf="http://www.w3.org/1999/02/22-rdf-syntax-ns#"
   xmlns:svg="http://www.w3.org/2000/svg"
   xmlns="http://www.w3.org/2000/svg"
   xmlns:xlink="http://www.w3.org/1999/xlink"
   xmlns:sodipodi="http://sodipodi.sourceforge.net/DTD/sodipodi-0.dtd"
   xmlns:inkscape="http://www.inkscape.org/namespaces/inkscape"
   width="735"
   height="202"
   id="svg2"
   version="1.1"
   inkscape:version="0.48.4 r9939"
   sodipodi:docname="xchat logo.svg">
  <defs
     id="defs4">
    <linearGradient
       id="linearGradient5686-0">
      <stop
         style="stop-color:#ffff00;stop-opacity:1;"
         offset="0"
         id="stop5688-2" />
      <stop
         style="stop-color:#ff0000;stop-opacity:1;"
         offset="1"
         id="stop5690-5" />
    </linearGradient>
    <linearGradient
       inkscape:collect="always"
       xlink:href="#linearGradient5686-0"
       id="linearGradient3139"
       gradientUnits="userSpaceOnUse"
       gradientTransform="matrix(0.69657731,-0.69657731,0.69657731,0.69657731,409.84458,1613.8765)"
       x1="158.75"
       y1="-711.78571"
       x2="137.5"
       y2="-676.60712" />
    <linearGradient
       inkscape:collect="always"
       xlink:href="#linearGradient5686-0"
       id="linearGradient3967"
       gradientUnits="userSpaceOnUse"
       gradientTransform="matrix(0.69657731,-0.69657731,0.69657731,0.69657731,409.84458,1613.8765)"
       x1="158.75"
       y1="-711.78571"
       x2="137.5"
       y2="-676.60712" />
    <linearGradient
       inkscape:collect="always"
       xlink:href="#linearGradient5686-0"
       id="linearGradient3970"
       gradientUnits="userSpaceOnUse"
       gradientTransform="matrix(0.69657731,-0.69657731,0.69657731,0.69657731,411.12284,1615.7075)"
       x1="158.75"
       y1="-711.78571"
       x2="137.5"
       y2="-676.60712" />
    <linearGradient
       inkscape:collect="always"
       xlink:href="#linearGradient5686-0"
       id="linearGradient3993"
       gradientUnits="userSpaceOnUse"
       gradientTransform="matrix(0.69657731,-0.69657731,0.69657731,0.69657731,411.12284,1615.7075)"
       x1="158.75"
       y1="-711.78571"
       x2="137.5"
       y2="-676.60712" />
    <linearGradient
       inkscape:collect="always"
       xlink:href="#linearGradient5686-0"
       id="linearGradient3996"
       gradientUnits="userSpaceOnUse"
       gradientTransform="matrix(0.69657731,-0.69657731,0.69657731,0.69657731,411.12284,1615.7075)"
       x1="160.56271"
       y1="-719.58032"
       x2="137.5"
       y2="-676.60712" />
  </defs>
  <sodipodi:namedview
     id="base"
     pagecolor="#ffffff"
     bordercolor="#666666"
     borderopacity="1.0"
     inkscape:pageopacity="0.0"
     inkscape:pageshadow="2"
     inkscape:zoom="0.9899495"
     inkscape:cx="448.14133"
     inkscape:cy="27.563646"
     inkscape:document-units="px"
     inkscape:current-layer="layer1"
     showgrid="false"
     inkscape:window-width="1278"
     inkscape:window-height="1004"
     inkscape:window-x="0"
     inkscape:window-y="18"
     inkscape:window-maximized="0" />
  <metadata
     id="metadata7">
    <rdf:RDF>
      <cc:Work
         rdf:about="">
        <dc:format>image/svg+xml</dc:format>
        <dc:type
           rdf:resource="http://purl.org/dc/dcmitype/StillImage" />
        <dc:title></dc:title>
      </cc:Work>
    </rdf:RDF>
  </metadata>
  <g
     inkscape:label="Layer 1"
     inkscape:groupmode="layer"
     id="layer1"
     transform="translate(0,-850.3622)">
    <g
       id="g5991"
       transform="translate(609.88006,-675.5293)">
      <g
         transform="translate(-10.101525,233.99825)"
         id="g4224">
        <path
           sodipodi:nodetypes="sssscssssscsssssssscsssssssssssssssss"
           inkscape:connector-curvature="0"
           id="path4228"
           d="m -527.71429,1437.465 c -15.82712,-2.0743 -33.98433,-12.9454 -44.19376,-26.4595 -9.75658,-12.9147 -14.26502,-25.5791 -14.29146,-40.1452 -0.0235,-12.9378 3.77229,-22.5301 13.39691,-33.8553 l 2.54952,-3 -2.12777,6 c -1.62293,4.5764 -2.131,8.3726 -2.14139,16 -0.0174,12.7626 3.14495,23.0985 10.37405,33.9069 12.98204,19.4098 33.42343,31.2133 55.9339,32.298 17.21857,0.8297 29.93134,-3.2405 40.68689,-13.0264 l 5.69157,-5.1785 -2.33876,4.1884 c -12.48472,22.3585 -35.47521,32.9498 -63.5397,29.2716 z m 16.48164,-39.9356 c -6.18748,-1.5773 -12.31398,-4.6494 -18.71499,-9.3846 -7.1286,-5.2734 -11.18892,-10.3711 -15.64303,-19.6398 -2.91491,-6.0657 -3.12362,-7.235 -3.12362,-17.5 0,-10.5605 0.13164,-11.2397 3.29509,-17 1.8123,-3.3 4.39709,-7.35 5.74398,-9 l 2.44888,-3 -2.09526,5.5 c -1.70692,4.4806 -2.0202,7.1052 -1.69028,14.1605 0.35422,7.5748 0.88418,9.6301 4.22739,16.3946 11.87321,24.0238 41.06277,35.8902 63.01514,25.6175 3.49666,-1.6363 8.17908,-4.7966 10.40538,-7.0229 4.59413,-4.5942 4.39406,-3.0499 -0.59254,4.5734 -3.95085,6.0399 -11.07587,11.6207 -18.53858,14.5205 -5.8626,2.2781 -22.69486,3.3212 -28.73756,1.7808 z m 12.01836,-36.593 c -6.82134,-3.1615 -12.36714,-8.4008 -15.80469,-14.9314 -3.52674,-6.7 -3.71684,-16.9508 -0.4299,-23.1822 2.83897,-5.3821 4.4112,-6.4204 3.17032,-2.0937 -2.40267,8.3776 0.85107,17.7867 8.95229,25.8879 6.71478,6.7148 14.12295,9.888 23.08439,9.888 6.98303,0 10.4935,-1.1709 14.43225,-4.8136 3.14939,-2.9127 2.73242,-1.6211 -1.18516,3.6712 -5.9473,8.0343 -21.21264,10.6751 -32.2195,5.5738 z"
           style="fill:#74b042" />
      </g>
      <path
         id="path4183"
         d="m -157.65131,1715.2532 c 0.0119,-0.6875 0.91191,-5.2772 2,-10.1993 1.0881,-4.9222 1.97836,-9.5347 1.97836,-10.25 l 0,-1.3007 -1.40638,0 -1.40638,0 0.52301,-2 0.52301,-2 1.36995,0 1.36994,0 1.42877,-3.4195 1.42876,-3.4195 2.14331,-1.1471 2.14331,-1.147 2.94135,0.646 2.94135,0.646 -0.0153,1.1706 c -0.008,0.6438 -0.34592,1.6876 -0.75,2.3197 l -0.73469,1.1492 -2.42167,0.3508 -2.42167,0.3508 -0.41167,1.25 -0.41166,1.25 2.69033,0 2.69032,0 -0.60699,1.5818 c -0.33385,0.87 -0.60699,1.77 -0.60699,2 -10e-6,0.23 -1.09469,0.4182 -2.43262,0.4182 l -2.43261,0 -0.54164,1.75 c -0.2979,0.9625 -1.20058,4.9105 -2.00595,8.7733 -0.80537,3.8628 -1.93082,8.2503 -2.501,9.75 l -1.03669,2.7267 -2.02475,0 -2.02475,0 0.0216,-1.25 z"
         style="fill:#74b042"
         inkscape:connector-curvature="0" />
      <path
         id="path4181"
         d="m -281.57401,1699.8039 c 1.04558,-4.7847 1.90105,-8.9967 1.90105,-9.3601 l 0,-0.6608 5.70865,-0.5892 5.70865,-0.5892 1.04135,0.8257 1.04135,0.8257 2,-0.8061 c 1.1,-0.4434 3.00213,-0.8378 4.22695,-0.8764 l 2.22694,-0.07 1.60457,2.4489 1.60456,2.4488 -1.15038,5.8012 c -0.63271,3.1906 -1.37471,6.5886 -1.6489,7.5511 l -0.49852,1.75 -2.26173,0 -2.26174,0 0.89131,-6.6526 0.89131,-6.6525 -1.31218,-0.8312 c -0.72171,-0.4571 -1.76219,-0.6887 -2.31219,-0.5146 l -1,0.3166 -0.30144,1.9172 c -0.16579,1.0544 -0.76019,4.2796 -1.3209,7.1671 l -1.01946,5.25 -2.44815,0 -2.44815,0 0.46445,-2.25 c 0.25545,-1.2375 0.73327,-4.332 1.06182,-6.8766 l 0.59737,-4.6266 -1.71282,-0.6573 -1.71282,-0.6572 -0.75089,1.2149 c -0.41299,0.6683 -1.28742,4.0585 -1.94318,7.5339 l -1.19229,6.3189 -2.78782,0 -2.78782,0 1.90105,-8.6993 z"
         style="fill:#74b042"
         inkscape:connector-curvature="0" />
      <path
         id="path4179"
         d="m -251.47296,1707.3032 -1.2,-1.2 0.004,-4.55 0.004,-4.55 1.94844,-3.1955 1.94844,-3.1956 3.95722,-1.1856 3.95724,-1.1856 2.52067,0.6327 c 1.38637,0.3479 3.22713,1.3391 4.09058,2.2025 l 1.56993,1.57 0,2.9607 0,2.9606 -1.39436,3.3372 -1.39437,3.3372 -2.32814,1.6307 -2.32813,1.6307 -5.0775,0 -5.07749,0 -1.2,-1.2 z"
         style="fill:#74b042"
         inkscape:connector-curvature="0" />
      <path
         id="path4177"
         d="m -240.84391,1702.7532 2.05061,-1.75 0.17532,-2 c 0.0964,-1.1 0.12351,-2.5322 0.0602,-3.1826 l -0.11518,-1.1826 -1.96222,-0.6228 -1.96222,-0.6228 -1.9565,1.0471 -1.9565,1.0471 -0.69959,3.1852 -0.69959,3.1852 1.80944,1.3231 c 2.33775,1.7094 2.79661,1.6721 5.25623,-0.4269 z"
         style="fill:#ffffff"
         inkscape:connector-curvature="0" />
      <path
         id="path4175"
         d="m -230.63738,1705.797 c 0.0196,-1.5366 1.03206,-7.5188 2.25,-13.2938 l 2.21443,-10.5 2.39352,-0.3384 2.39352,-0.3383 -0.54397,4.0556 -0.54396,4.0556 4.29757,-0.5891 4.29757,-0.589 1.63494,2.4952 1.63493,2.4952 -0.66862,4.1814 -0.66863,4.1813 -2.14892,3.1953 -2.14892,3.1952 -7.21452,0.2938 -7.21451,0.2938 0.0356,-2.7938 z"
         style="fill:#74b042"
         inkscape:connector-curvature="0" />
      <path
         id="path4173"
         d="m -217.6482,1700.9381 c 0.53639,-1.4108 0.97525,-3.4272 0.97525,-4.4809 l 0,-1.9159 -2.57322,-0.6458 -2.57321,-0.6459 -0.8756,0.8768 c -0.48158,0.4823 -1.18115,2.7893 -1.55459,5.1268 l -0.679,4.25 3.15256,0 3.15256,0 z"
         style="fill:#ffffff"
         inkscape:connector-curvature="0" />
      <path
         id="path4171"
         d="m -207.37985,1701.2905 0.93071,-7.2127 -1.11191,-0.3706 -1.1119,-0.3707 0,-1.9166 0,-1.9167 4.56739,0 4.56739,0 -0.49852,1.75 c -0.27419,0.9625 -1.0105,4.45 -1.63626,7.75 -0.62576,3.3 -1.36207,6.7875 -1.63626,7.75 l -0.49852,1.75 -2.25141,0 -2.25141,0 z"
         style="fill:#74b042"
         inkscape:connector-curvature="0" />
      <path
         id="path4196"
         d="m -196.83813,1685.789 1.0625,0.6563 1.1875,0.75 -1.46875,6.9062 c -0.81033,3.8011 -1.68694,8.5938 -1.96875,10.6563 l -0.53125,3.75 2.34375,0 2.34375,0 1.6875,-7.75 c 0.92469,-4.2625 2.26185,-10.3375 2.96875,-13.5 l 1.28125,-5.75 -4.375,0 -4.375,0 -0.0312,1.25 c -0.0334,1.0888 -0.19421,1.916 -0.1249,3.0312 z"
         style="fill:#74b042"
         inkscape:connector-curvature="0"
         sodipodi:nodetypes="cccccccccccccccc" />
      <path
         id="path4194"
         d="m -197.78009,1684.3828 0.0357,-2.125 -1.03125,-1.75 -1.8125,0 -1.84375,0 -1.21875,1.4687 -1.25,1.5 0.625,1.6563 0.625,1.625 3.34375,-0.5313 1.8125,-0.3214 z"
         style="fill:#74b042"
         inkscape:connector-curvature="0"
         sodipodi:nodetypes="cccccccccccc" />
      <path
         id="path4167"
         d="m -186.92295,1707.4231 -1.75,-1.0193 0,-3.9824 0,-3.9824 1.42122,-3.4015 1.42122,-3.4015 3.02912,-1.5664 3.02912,-1.5664 2.82715,0 2.82716,0 2.2225,1.5567 2.22251,1.5567 0,4.4433 0,4.4433 -6.5,0 -6.5,0 0,1.5 0,1.5 5.5,0 5.5,0 0,1.3 c 0,0.715 -0.54,1.84 -1.2,2.5 l -1.2,1.2 -5.55,-0.03 -5.55,-0.03 -1.75,-1.0193 z"
         style="fill:#74b042"
         inkscape:connector-curvature="0" />
      <path
         id="path4165"
         d="m -175.35016,1694.902 -0.53677,-1.3988 -1.31122,0 c -0.72117,0 -2.02303,0.2731 -2.89301,0.607 l -1.58179,0.607 0,1.1922 0,1.1922 3.42978,-0.4004 3.42978,-0.4004 z"
         style="fill:#ffffff"
         inkscape:connector-curvature="0" />
      <path
         id="path4163"
         d="m -141.35689,1699.1781 1.96804,-9.4244 5.5666,-0.5745 5.5666,-0.5746 1.29134,1.0718 1.29135,1.0717 0,3.3775 0,3.3776 -2.96862,0 -2.96861,0 0.52609,-1.371 0.52608,-1.3709 -1.7006,-0.6526 c -2.25022,-0.8635 -2.21358,-0.9247 -4.19462,7.0081 l -1.71972,6.8864 -2.576,0.2996 -2.57598,0.2997 z"
         style="fill:#74b042"
         inkscape:connector-curvature="0" />
      <path
         id="path4161"
         d="m -123.4687,1707.3075 -1.20426,-1.2043 0,-3.8321 0,-3.8321 1.41647,-3.3901 1.41649,-3.3901 2.61285,-1.712 2.61287,-1.7121 5.66943,0.6664 c 3.11817,0.3664 5.84946,0.8463 6.06951,1.0664 0.22005,0.22 -0.45689,4.3681 -1.50431,9.2179 l -1.90441,8.8178 -6.99019,0.2543 -6.9902,0.2542 z"
         style="fill:#74b042"
         inkscape:connector-curvature="0" />
      <path
         id="path4159"
         d="m -111.8389,1699.2589 1.07731,-4.2443 -0.88246,-0.8825 -0.88248,-0.8825 -2.4955,0.6264 -2.49552,0.6263 -1.1488,3.4809 -1.1488,3.4809 0.63012,1.0196 0.63011,1.0195 2.81935,0 2.81934,0 z"
         style="fill:#ffffff"
         inkscape:connector-curvature="0" />
      <path
         id="path4157"
         d="m -102.34654,1699.1284 1.95768,-9.3747 5.604727,-0.5785 5.60474,-0.5784 0.80142,0.8014 0.80142,0.8014 3.90776,-1.043 3.90776,-1.0431 2.14606,1.9422 2.14606,1.9421 -0.60302,4.3996 c -0.33166,2.4197 -1.06992,6.1334 -1.64057,8.2526 l -1.03755,3.8532 -2.09066,0 -2.09067,0 0.6774,-6.8745 0.67739,-6.8745 -1.71823,-0.6594 -1.71824,-0.6593 -0.71811,1.1619 c -0.39495,0.639 -1.00966,3.3598 -1.366,6.046 -0.35635,2.6863 -0.90483,5.5537 -1.21884,6.372 l -0.57093,1.4878 -2.21373,0 -2.21373,0 0.74772,-5.25 c 0.41124,-2.8875 0.78057,-5.9894 0.82072,-6.893 l 0.073,-1.643 -1.67005,-0.6409 -1.67005,-0.6408 -0.65006,1.0518 c -0.35753,0.5785 -1.22985,3.9687 -1.93848,7.5339 l -1.28843,6.482 -2.707097,0 -2.70709,0 z"
         style="fill:#74b042"
         inkscape:connector-curvature="0" />
      <path
         id="path4155"
         d="m -72.472958,1707.3032 -1.2,-1.2 0.002,-4.05 0.002,-4.05 1.74844,-3.4861 1.74845,-3.4861 2.5,-1.2491 2.5,-1.2492 3.02749,-0.015 3.0275,-0.015 2.27542,1.5938 2.27542,1.5937 -0.30291,4.1563 -0.30381,4.1561 -6.26695,0.5 -6.26694,0.5 0.005,1 0.005,1 5.5115,0.2999 c 5.94939,0.3237 6.02238,0.377 4.47632,3.2658 l -1.0343,1.9343 -6.26481,0 -6.26482,0 -1.2,-1.2 z"
         style="fill:#74b042"
         inkscape:connector-curvature="0" />
      <path
         id="path4153"
         d="m -60.672958,1694.8233 0,-1.4529 -2.74145,0.3164 -2.74145,0.3164 -0.29968,1.5828 -0.29969,1.5829 3.04114,-0.4464 3.04113,-0.4463 z"
         style="fill:#ffffff"
         inkscape:connector-curvature="0" />
      <path
         id="path4151"
         d="m -51.461268,1699.3126 0.28831,-9.3094 2.84262,-0.3254 2.84262,-0.3253 -0.34262,5.9827 -0.34262,5.9827 0.56978,-0.355 c 0.31338,-0.1952 1.41906,-2.8535 2.45708,-5.9073 l 1.88731,-5.5524 3.79292,0 3.79291,0 0.0554,6.75 0.0554,6.75 2.55808,-6.75 2.55809,-6.75 2.38647,0 2.38648,0 0,1.0556 c 0,0.5806 -1.65041,4.8556 -3.66757,9.5 l -3.6675,8.4444 -3.83242,0 -3.83243,0 -0.0705,-6.25 -0.0705,-6.25 -2.31324,6 -2.31325,6 -4.15459,0.3094 -4.15459,0.3093 0.28831,-9.3093 z"
         style="fill:#74b042"
         inkscape:connector-curvature="0" />
      <path
         id="path4149"
         d="m -22.101528,1706.9318 -1.57143,-1.5715 0,-3.3946 0,-3.3946 1.66916,-3.5003 1.66915,-3.5003 3.46264,-1.6431 3.46263,-1.6431 3.61493,0.5866 3.61493,0.5866 1.25328,1.714 1.25328,1.714 0,3.3746 0,3.3746 -1.12496,2.1842 c -0.61873,1.2014 -2.04717,3.1968 -3.17432,4.4343 l -2.04935,2.25 -5.25426,0 -5.25425,0 z"
         style="fill:#74b042"
         inkscape:connector-curvature="0" />
      <path
         id="path4147"
         d="m -12.009728,1703.0265 2.10824,-1.4766 0.65733,-2.619 0.65732,-2.619 -1.16551,-1.4043 -1.1655,-1.4044 -1.72257,0 -1.72256,0 -1.57708,1.75 c -0.86739,0.9625 -1.87499,2.944 -2.23911,4.4032 l -0.66203,2.6533 1.83412,1.0663 c 2.39431,1.3921 2.52388,1.383 4.99735,-0.3495 z"
         style="fill:#ffffff"
         inkscape:connector-curvature="0" />
      <path
         id="path4145"
         d="m -2.309578,1706.7532 c 0.27399,-0.9625 1.23621,-5.1778 2.13828,-9.3674 l 1.64011,-7.6174 5.63776,-0.5819 5.63777,-0.5819 1.29135,1.0718 1.29135,1.0717 0,1.7958 c 0,0.9876 -0.27314,2.5075 -0.60699,3.3775 l -0.60699,1.5818 -2.27638,0 -2.27638,0 -0.55056,-2.1054 -0.55056,-2.1053 -1.31607,0.4382 -1.31607,0.4382 -0.31293,1.9172 c -0.17212,1.0544 -0.97219,4.2796 -1.77794,7.1671 l -1.465,5.25 -2.53945,0 -2.53946,0 z"
         style="fill:#74b042"
         inkscape:connector-curvature="0" />
      <path
         id="path4143"
         d="m 15.327042,1707.3323 c 0,-0.7205 1.19252,-6.8268 2.65005,-13.5695 l 2.65005,-12.2596 2.46124,0 2.46124,0 -0.58448,3.25 c -0.32147,1.7875 -0.8854,5.2022 -1.2532,7.5882 l -0.66871,4.3381 2.39191,-0.3381 2.3919,-0.3382 1.83236,-3.75 1.83236,-3.75 1.91764,0 1.91764,0 0,2.5497 0,2.5496 -1.47896,2.86 c -0.81343,1.573 -2.05093,3.0694 -2.75,3.3254 l -1.27104,0.4653 1.25,1.325 1.25,1.325 0,2.8 0,2.8 -2.25,-0.01 -2.25,-0.01 -1.71615,-4.0844 -1.71614,-4.0845 -1.21496,0.405 -1.21496,0.405 -1.15299,3.4396 -1.15299,3.4396 -2.16591,0.3196 -2.1659,0.3195 0,-1.3099 z"
         style="fill:#74b042"
         inkscape:connector-curvature="0" />
      <path
         id="path4060"
         d="m 35.507492,1706.2532 0.31955,-2.25 2.36534,-0.3347 2.36533,-0.3346 0.91745,0.9174 0.91745,0.9175 -0.63978,1.6672 -0.63977,1.6672 -2.96256,0 -2.96256,0 z"
         style="fill:#74b042"
         inkscape:connector-curvature="0" />
      <path
         style="fill:#121b28"
         d="m -455.7964,1696.0475 -0.62345,-0.6245 2.52089,-10.2099 c 1.38649,-5.6154 2.95964,-10.7724 3.49589,-11.4599 l 0.975,-1.25 5.42301,0 5.42301,0 2.36571,-2.3657 c 1.30115,-1.3012 3.25369,-4.1137 4.33899,-6.25 l 1.97328,-3.8843 6.64628,-30.5415 c 3.65545,-16.7978 7.00169,-31.8728 7.4361,-33.5 l 0.78983,-2.9585 13.17945,-0.279 13.17945,-0.279 0,1.7103 c 0,0.9406 -3.39424,17.3564 -7.54275,36.4795 l -7.54275,34.7693 -2.48225,7.2994 -2.48225,7.2995 -3.44591,5.1908 -3.4459,5.1908 -4.77909,2.8092 -4.7791,2.8092 -15,0.3345 -15,0.3344 -0.62344,-0.6246 z m 325.62345,-37.1701 c -14.96365,-2.9467 -17.04873,-3.7622 -22.33532,-8.7361 -4.2466,-3.9955 -5.64717,-6.7347 -7.13546,-13.9556 l -1.19905,-5.8175 1.12803,-8.6825 1.12803,-8.6825 2.46766,-9.3796 2.46766,-9.3796 2.98808,-6.261 2.98809,-6.261 4.6169,-5.1351 4.6169,-5.1351 4.21414,-2.4696 c 2.31778,-1.3583 6.87819,-3.4512 10.13425,-4.6508 l 5.92008,-2.1811 14.5,-0.073 14.499997,-0.074 5.40974,1.8834 5.40974,1.8834 4.290095,4.2901 4.29009,4.2901 1.68416,5.7933 1.68416,5.7933 -0.60052,9.0332 -0.60052,9.0332 -1.80731,7.5 -1.8073,7.5 -29.891942,0.2651 -29.89194,0.2652 -1.33422,1.1073 -1.33423,1.1073 0,2.3305 c 0,1.2818 0.53761,3.5104 1.19469,4.9525 l 1.19468,2.6221 3.05532,1.675 3.05531,1.675 24.25,0.3281 24.249997,0.3281 -0.0394,2.1719 c -0.0217,1.1946 -0.87401,6.1659 -1.89408,11.0474 l -1.85467,8.8756 -1.35592,0.8591 -1.35591,0.8592 -22.499997,-0.1007 c -12.375,-0.055 -23.4,-0.2779 -24.5,-0.4945 z m 36.499997,-63.4399 0,-4.0658 -1.02964,-1.9239 -1.02966,-1.9239 -2.92069,-1.5103 -2.920687,-1.5104 -6.48456,0 -6.48456,0 -2.8151,1.0636 c -4.8082,1.8167 -11.3151,9.2274 -11.3151,12.8867 l 0,1.0497 17.5,0 17.499997,0 0,-4.0657 z m -252.000007,62.3749 c -1.375,-0.2302 -4.75,-1.112 -7.5,-1.9596 l -5,-1.5411 -5.15127,-3.458 -5.15126,-3.458 -2.64634,-3.8187 c -1.45549,-2.1003 -3.58058,-6.2386 -4.72243,-9.1962 l -2.07609,-5.3776 -0.49169,-9 -0.4917,-9 1.68018,-9 1.68018,-9 2.99489,-9 2.99488,-9 3.60532,-6.5 3.60532,-6.5 7.70593,-7.7421 7.70594,-7.7422 6.37908,-2.9741 c 3.50849,-1.6358 9.2862,-3.7146 12.83935,-4.6196 l 6.46028,-1.6454 12.53972,0.4569 12.53972,0.4568 5.73921,2.2227 5.73921,2.2226 4.76079,3.2658 4.76079,3.2658 3.70641,4.8758 3.70641,4.8759 2.29359,6.0406 2.29359,6.0405 -0.0539,10.5 -0.0539,10.5 -2.74648,9 c -1.51056,4.95 -4.52379,13.8725 -6.69606,19.8277 -2.17235,5.9553 -3.94966,11.4678 -3.94966,12.25 l 0,1.4223 5.83333,0 c 3.20834,0 6.07695,0.2436 6.37471,0.5414 l 0.54136,0.5413 -2.79821,10.4304 c -1.53902,5.7367 -3.08419,10.8931 -3.43372,11.4586 l -0.6355,1.0283 -36.19099,-0.1362 c -19.90504,-0.075 -37.31598,-0.3245 -38.69098,-0.5546 z m 43.90839,-31.0592 c 1.09618,-3.7125 3.84314,-13.275 6.10435,-21.25 l 4.11128,-14.5 -0.31201,-8.5799 -0.312,-8.5798 -2.88391,-3.779 -2.88391,-3.779 -4.11609,-1.8692 -4.11609,-1.8692 -8,-0.012 -8,-0.012 -5,2.3334 -5,2.3333 -3.86179,4.2835 -3.8618,4.2836 -2.95362,6.3117 -2.95363,6.3118 -1.92144,9.3116 -1.92145,9.3116 0.0107,4.5 c 0.006,2.475 0.42012,6.2652 0.92048,8.4226 l 0.90977,3.9226 1.87491,2.5774 1.87494,2.5774 4.40334,2.25 4.40335,2.25 15.74576,0 15.74577,0 1.99307,-6.75 z m 70.09162,31.0592 c -1.375,-0.2302 -4.5546,-1.0776 -7.06578,-1.883 l -4.56578,-1.4646 -3.64135,-3.7308 -3.64135,-3.7308 -1.62652,-4.5 -1.62652,-4.5 -0.0354,-8.6725 -0.0354,-8.6725 5.78652,-27.8275 5.78652,-27.8275 0.95498,-1.25 0.95497,-1.25 11.31854,0 11.31854,0 0.5434,0.8792 0.54341,0.8793 -5.48439,27.3193 -5.48439,27.3192 0,5.1907 0,5.1907 1.75,2.1602 1.75,2.1601 4,0.9268 4,0.9268 7.62756,0.024 7.62755,0.024 1.03385,-1.25 1.03385,-1.25 7.09929,-33 c 3.90462,-18.15 7.53484,-34.0125 8.06716,-35.25 l 0.96786,-2.25 11.52144,0 11.52144,0 0,2.3271 c 0,1.2799 -4.31451,22.5403 -9.58781,47.2453 l -9.5878,44.9181 -1.1622,0.7394 -1.16219,0.7395 -24,-0.1209 c -13.2,-0.066 -25.125,-0.3092 -26.5,-0.5393 z m 167.408392,-0.6873 -0.52884,-1.3781 9.66725,-45.3719 9.66725,-45.3719 1.08518,-1.3341 1.08518,-1.334 31.05779,0.3612 31.05779,0.3612 3.5821,1.6017 3.5821,1.6016 2.15285,2.7369 2.15285,2.7369 1.02382,3.6343 c 0.5631,1.9989 1.30239,5.3218 1.64286,7.3843 l 0.61904,3.75 -28.50537,0 -28.50536,0 -1.01923,1.25 -1.01923,1.25 -6.60321,31.7146 c -3.63177,17.4431 -6.60322,32.3734 -6.60322,33.1786 0,0.8052 -0.70714,2.1711 -1.57143,3.0354 l -1.57143,1.5714 -10.95995,0 -10.95996,0 -0.52883,-1.3781 z m 78.05202,0.3141 -0.6576,-1.0641 2.6674,-10.7518 2.6674,-10.7519 -5.93288,-20.6534 -5.93288,-20.6533 0.53074,-0.5308 c 0.2919,-0.2919 6.5149,-0.5307 13.82888,-0.5307 l 13.29815,0 0.92322,1.75 c 0.50777,0.9625 1.46072,4.3626 2.11767,7.5558 l 1.19446,5.8059 0.87084,-0.3059 c 0.47897,-0.1682 9.455,-12.9058 19.94673,-28.3058 10.49174,-15.4 19.82374,-28.5625 20.7378,-29.25 l 1.66191,-1.25 14.91586,0 14.915858,0 -0.52125,1.3583 c -0.28668,0.7471 -14.851488,20.4346 -32.366248,43.75 l -31.84501,42.3917 -2.38625,9.5 c -1.31243,5.225 -2.7866,10.2875 -3.27592,11.25 l -0.88967,1.75 -12.9058,0 -12.9058,0 -0.65761,-1.064 z M -412.25231,1581.283 c 0.36118,-2.3539 1.42679,-7.4298 2.36802,-11.2798 l 1.71134,-7 13.25,-0.279 13.25,-0.279 -0.027,1.279 c -0.0149,0.7034 -1.03737,5.779 -2.27223,11.279 l -2.2452,10 -13.3458,0.2798 -13.34581,0.2799 0.65668,-4.2799 z"
         id="path4058"
         inkscape:connector-curvature="0" />
    </g>
  </g>
</svg>
